# xmcd CD database file
#
# Track frame offsets:
#	150
#	15266
#	29393
#	41992
#	57144
#	74442
#	86727
#	102039
#	117337
#	132162
#	148925
#
# Disc length: 2230 seconds
#
# Revision: 0
# Processed by: cddbd v1.5.2PL0 Copyright (c) Steve Scherf et al.
# Submitted via: CDex 1.96
#
DISCID=9708b40b
DTITLE=Lit - These Are The Days
DYEAR=2017
DGENRE=Country
TTITLE0=Night In The Life
TTITLE1=Good Problem To Have
TTITLE2=All Eyes On Us
TTITLE3=Back With You
TTITLE4=Someday Maybe
TTITLE5=These Are The Days
TTITLE6=Just Feels Right
TTITLE7=Headstone
TTITLE8=Easy
TTITLE9=California Son
TTITLE10=Fast
EXTD=YEAR: 2017
EXTT0=
EXTT1=
EXTT2=
EXTT3=
EXTT4=
EXTT5=
EXTT6=
EXTT7=
EXTT8=
EXTT9=
EXTT10=
PLAYORDER=
